STARTFONT 2.1
FONT -FontForge-Bitstream Vera Sans Mono-Book-R-Normal-SansMono--18-170-75-75-P-109-ISO8859-1
SIZE 17 75 75
FONTBOUNDINGBOX 12 21 0 -4
COMMENT "Generated by fontforge, http://fontforge.sourceforge.net"
COMMENT "Copyright (c) 2003 by Bitstream, Inc. All Rights Reserved."
STARTPROPERTIES 40
FOUNDRY "FontForge"
FAMILY_NAME "Bitstream Vera Sans Mono"
WEIGHT_NAME "Book"
SLANT "R"
SETWIDTH_NAME "Normal"
ADD_STYLE_NAME "SansMono"
PIXEL_SIZE 18
POINT_SIZE 170
RESOLUTION_X 75
RESOLUTION_Y 75
SPACING "P"
AVERAGE_WIDTH 109
CHARSET_REGISTRY "ISO8859"
CHARSET_ENCODING "1"
FONTNAME_REGISTRY ""
CHARSET_COLLECTIONS "ISO8859-9 ISOLatin1Encoding"
FONT_NAME "BitstreamVeraSansMono-Roman"
FACE_NAME "Bitstream Vera Sans Mono"
COPYRIGHT "Copyright (c) 2003 by Bitstream, Inc. All Rights Reserved."
FONT_VERSION "Release 1.10"
FONT_ASCENT 14
FONT_DESCENT 4
UNDERLINE_POSITION -2
UNDERLINE_THICKNESS 2
X_HEIGHT 9
CAP_HEIGHT 12
RAW_ASCENT 759
RAW_DESCENT 240
NORM_SPACE 11
RELATIVE_WEIGHT 40
RELATIVE_SETWIDTH 50
SUPERSCRIPT_X 0
SUPERSCRIPT_Y 5
SUPERSCRIPT_SIZE 10
SUBSCRIPT_X 0
SUBSCRIPT_Y -3
SUBSCRIPT_SIZE 10
FIGURE_WIDTH 11
AVG_LOWERCASE_WIDTH 110
AVG_UPPERCASE_WIDTH 110
ENDPROPERTIES
CHARS 269
STARTCHAR space
ENCODING 32
SWIDTH 602 0
DWIDTH 11 0
BBX 1 1 0 0
BITMAP
00
ENDCHAR
STARTCHAR exclam
ENCODING 33
SWIDTH 602 0
DWIDTH 11 0
BBX 2 13 5 0
BITMAP
C0
C0
C0
C0
C0
C0
C0
C0
C0
00
00
C0
C0
ENDCHAR
STARTCHAR quotedbl
ENCODING 34
SWIDTH 602 0
DWIDTH 11 0
BBX 6 5 3 8
BITMAP
CC
CC
CC
CC
CC
ENDCHAR
STARTCHAR numbersign
ENCODING 35
SWIDTH 602 0
DWIDTH 11 0
BBX 11 14 0 0
BITMAP
04C0
0C80
0C80
0980
7FE0
7FE0
1900
1300
FFC0
FFC0
3200
2200
2600
6600
ENDCHAR
STARTCHAR dollar
ENCODING 36
SWIDTH 602 0
DWIDTH 11 0
BBX 9 17 1 -3
BITMAP
0800
0800
3E00
7F00
C900
C800
C800
7800
0F00
0980
0980
8980
FF00
7E00
0800
0800
0800
ENDCHAR
STARTCHAR percent
ENCODING 37
SWIDTH 602 0
DWIDTH 11 0
BBX 11 13 0 0
BITMAP
7800
CC00
CC00
CC00
CC00
79C0
0E00
73C0
0660
0660
0660
0660
03C0
ENDCHAR
STARTCHAR ampersand
ENCODING 38
SWIDTH 602 0
DWIDTH 11 0
BBX 10 13 1 0
BITMAP
1F00
3F00
3000
3000
1800
3C00
6CC0
CEC0
C7C0
C380
E300
7D80
3DC0
ENDCHAR
STARTCHAR quotesingle
ENCODING 39
SWIDTH 602 0
DWIDTH 11 0
BBX 2 5 5 8
BITMAP
C0
C0
C0
C0
C0
ENDCHAR
STARTCHAR parenleft
ENCODING 40
SWIDTH 602 0
DWIDTH 11 0
BBX 4 16 4 -2
BITMAP
30
20
60
60
40
C0
C0
C0
C0
C0
C0
40
60
60
20
30
ENDCHAR
STARTCHAR parenright
ENCODING 41
SWIDTH 602 0
DWIDTH 11 0
BBX 4 16 3 -2
BITMAP
C0
40
60
60
20
30
30
30
30
30
30
20
60
60
40
C0
ENDCHAR
STARTCHAR asterisk
ENCODING 42
SWIDTH 602 0
DWIDTH 11 0
BBX 7 8 2 5
BITMAP
10
92
54
38
38
54
92
10
ENDCHAR
STARTCHAR plus
ENCODING 43
SWIDTH 602 0
DWIDTH 11 0
BBX 10 10 1 1
BITMAP
0C00
0C00
0C00
0C00
FFC0
FFC0
0C00
0C00
0C00
0C00
ENDCHAR
STARTCHAR comma
ENCODING 44
SWIDTH 602 0
DWIDTH 11 0
BBX 3 5 3 -2
BITMAP
60
60
60
C0
80
ENDCHAR
STARTCHAR hyphen
ENCODING 45
SWIDTH 602 0
DWIDTH 11 0
BBX 5 2 3 4
BITMAP
F8
F8
ENDCHAR
STARTCHAR period
ENCODING 46
SWIDTH 602 0
DWIDTH 11 0
BBX 2 3 4 0
BITMAP
C0
C0
C0
ENDCHAR
STARTCHAR slash
ENCODING 47
SWIDTH 602 0
DWIDTH 11 0
BBX 9 15 1 -2
BITMAP
0180
0300
0300
0600
0600
0C00
0C00
1C00
1800
1800
3000
3000
6000
6000
C000
ENDCHAR
STARTCHAR zero
ENCODING 48
SWIDTH 602 0
DWIDTH 11 0
BBX 9 13 1 0
BITMAP
3E00
7F00
6300
C180
C180
CD80
CD80
C180
C180
C180
6300
7F00
3E00
ENDCHAR
STARTCHAR one
ENCODING 49
SWIDTH 602 0
DWIDTH 11 0
BBX 8 13 2 0
BITMAP
38
F8
D8
18
18
18
18
18
18
18
18
FF
FF
ENDCHAR
STARTCHAR two
ENCODING 50
SWIDTH 602 0
DWIDTH 11 0
BBX 9 13 1 0
BITMAP
7E00
FF00
8380
0180
0180
0380
0300
0E00
1C00
3800
6000
FF80
FF80
ENDCHAR
STARTCHAR three
ENCODING 51
SWIDTH 602 0
DWIDTH 11 0
BBX 9 13 1 0
BITMAP
7E00
FF00
8380
0180
0380
3F00
3F00
0380
0180
0180
8380
FF00
7E00
ENDCHAR
STARTCHAR four
ENCODING 52
SWIDTH 602 0
DWIDTH 11 0
BBX 9 13 1 0
BITMAP
0600
0E00
0E00
1600
3600
2600
6600
C600
FF80
FF80
0600
0600
0600
ENDCHAR
STARTCHAR five
ENCODING 53
SWIDTH 602 0
DWIDTH 11 0
BBX 9 13 1 0
BITMAP
7F00
7F00
6000
6000
7E00
7F00
4380
0180
0180
0180
8380
FF00
7E00
ENDCHAR
STARTCHAR six
ENCODING 54
SWIDTH 602 0
DWIDTH 11 0
BBX 9 13 1 0
BITMAP
1E00
7F00
7100
E000
C000
DE00
FF00
E380
C180
C180
6380
7F00
3E00
ENDCHAR
STARTCHAR seven
ENCODING 55
SWIDTH 602 0
DWIDTH 11 0
BBX 9 13 1 0
BITMAP
FF80
FF80
0300
0300
0700
0600
0600
0C00
0C00
1C00
1800
1800
3000
ENDCHAR
STARTCHAR eight
ENCODING 56
SWIDTH 602 0
DWIDTH 11 0
BBX 9 13 1 0
BITMAP
3E00
7F00
C180
C180
C180
7F00
7F00
E380
C180
C180
E380
7F00
3E00
ENDCHAR
STARTCHAR nine
ENCODING 57
SWIDTH 602 0
DWIDTH 11 0
BBX 9 13 1 0
BITMAP
3E00
7F00
E300
C180
C180
E380
7F80
3D80
0180
0380
4700
7E00
3C00
ENDCHAR
STARTCHAR colon
ENCODING 58
SWIDTH 602 0
DWIDTH 11 0
BBX 2 9 4 0
BITMAP
C0
C0
C0
00
00
00
C0
C0
C0
ENDCHAR
STARTCHAR semicolon
ENCODING 59
SWIDTH 602 0
DWIDTH 11 0
BBX 3 11 3 -2
BITMAP
60
60
60
00
00
00
60
60
60
C0
80
ENDCHAR
STARTCHAR less
ENCODING 60
SWIDTH 602 0
DWIDTH 11 0
BBX 9 9 1 1
BITMAP
0080
0780
1E00
7000
C000
7000
1E00
0780
0080
ENDCHAR
STARTCHAR equal
ENCODING 61
SWIDTH 602 0
DWIDTH 11 0
BBX 9 6 1 3
BITMAP
FF80
FF80
0000
0000
FF80
FF80
ENDCHAR
STARTCHAR greater
ENCODING 62
SWIDTH 602 0
DWIDTH 11 0
BBX 9 9 1 1
BITMAP
8000
F000
3C00
0700
0180
0700
3C00
F000
8000
ENDCHAR
STARTCHAR question
ENCODING 63
SWIDTH 602 0
DWIDTH 11 0
BBX 7 13 2 0
BITMAP
7C
FE
86
06
0E
1C
38
30
30
30
00
30
30
ENDCHAR
STARTCHAR at
ENCODING 64
SWIDTH 602 0
DWIDTH 11 0
BBX 9 15 1 -3
BITMAP
1E00
3300
6180
6780
CD80
CD80
CD80
CD80
CD80
CD80
C780
6000
6000
3000
1E00
ENDCHAR
STARTCHAR A
ENCODING 65
SWIDTH 602 0
DWIDTH 11 0
BBX 9 13 1 0
BITMAP
1C00
1C00
1C00
1C00
3600
3600
3600
3600
7F00
7F00
6300
C180
C180
ENDCHAR
STARTCHAR B
ENCODING 66
SWIDTH 602 0
DWIDTH 11 0
BBX 9 13 1 0
BITMAP
FE00
FF00
C180
C180
C180
FF00
FF00
C380
C180
C180
C380
FF00
FE00
ENDCHAR
STARTCHAR C
ENCODING 67
SWIDTH 602 0
DWIDTH 11 0
BBX 9 13 1 0
BITMAP
1F00
3F80
7080
E000
C000
C000
C000
C000
C000
E000
7080
3F80
1F00
ENDCHAR
STARTCHAR D
ENCODING 68
SWIDTH 602 0
DWIDTH 11 0
BBX 9 13 1 0
BITMAP
FC00
FE00
C700
C380
C180
C180
C180
C180
C180
C380
C700
FE00
FC00
ENDCHAR
STARTCHAR E
ENCODING 69
SWIDTH 602 0
DWIDTH 11 0
BBX 9 13 1 0
BITMAP
FF80
FF80
C000
C000
C000
FF80
FF80
C000
C000
C000
C000
FF80
FF80
ENDCHAR
STARTCHAR F
ENCODING 70
SWIDTH 602 0
DWIDTH 11 0
BBX 9 13 1 0
BITMAP
FF80
FF80
C000
C000
C000
FF00
FF00
C000
C000
C000
C000
C000
C000
ENDCHAR
STARTCHAR G
ENCODING 71
SWIDTH 602 0
DWIDTH 11 0
BBX 9 13 1 0
BITMAP
1F00
3F80
7080
E000
C000
C780
C780
C180
C180
E180
6180
3F80
1E00
ENDCHAR
STARTCHAR H
ENCODING 72
SWIDTH 602 0
DWIDTH 11 0
BBX 9 13 1 0
BITMAP
C180
C180
C180
C180
C180
FF80
FF80
C180
C180
C180
C180
C180
C180
ENDCHAR
STARTCHAR I
ENCODING 73
SWIDTH 602 0
DWIDTH 11 0
BBX 8 13 2 0
BITMAP
FF
FF
18
18
18
18
18
18
18
18
18
FF
FF
ENDCHAR
STARTCHAR J
ENCODING 74
SWIDTH 602 0
DWIDTH 11 0
BBX 7 13 1 0
BITMAP
3E
3E
06
06
06
06
06
06
06
06
86
FC
7C
ENDCHAR
STARTCHAR K
ENCODING 75
SWIDTH 602 0
DWIDTH 11 0
BBX 9 13 1 0
BITMAP
C180
C300
C600
CC00
D800
F800
F800
CC00
CE00
C600
C300
C380
C180
ENDCHAR
STARTCHAR L
ENCODING 76
SWIDTH 602 0
DWIDTH 11 0
BBX 9 13 1 0
BITMAP
C000
C000
C000
C000
C000
C000
C000
C000
C000
C000
C000
FF80
FF80
ENDCHAR
STARTCHAR M
ENCODING 77
SWIDTH 602 0
DWIDTH 11 0
BBX 9 13 1 0
BITMAP
E380
E380
E380
F780
D580
D580
DD80
C980
C180
C180
C180
C180
C180
ENDCHAR
STARTCHAR N
ENCODING 78
SWIDTH 602 0
DWIDTH 11 0
BBX 9 13 1 0
BITMAP
E180
E180
F180
D180
D180
D980
C980
CD80
C580
C580
C780
C380
C380
ENDCHAR
STARTCHAR O
ENCODING 79
SWIDTH 602 0
DWIDTH 11 0
BBX 9 13 1 0
BITMAP
3E00
7F00
6300
C180
C180
C180
C180
C180
C180
C180
6300
7F00
3E00
ENDCHAR
STARTCHAR P
ENCODING 80
SWIDTH 602 0
DWIDTH 11 0
BBX 9 13 1 0
BITMAP
FE00
FF00
C380
C180
C180
C380
FF00
FE00
C000
C000
C000
C000
C000
ENDCHAR
STARTCHAR Q
ENCODING 81
SWIDTH 602 0
DWIDTH 11 0
BBX 9 15 1 -2
BITMAP
3E00
7F00
6300
C180
C180
C180
C180
C180
C180
C180
6300
7F00
3E00
0700
0300
ENDCHAR
STARTCHAR R
ENCODING 82
SWIDTH 602 0
DWIDTH 11 0
BBX 10 13 1 0
BITMAP
FE00
FF00
C380
C180
C180
C380
FF00
FE00
C300
C380
C180
C180
C0C0
ENDCHAR
STARTCHAR S
ENCODING 83
SWIDTH 602 0
DWIDTH 11 0
BBX 9 13 1 0
BITMAP
3E00
7F00
E100
C000
C000
7C00
3F00
0380
0180
0180
8380
FF00
7E00
ENDCHAR
STARTCHAR T
ENCODING 84
SWIDTH 602 0
DWIDTH 11 0
BBX 10 13 1 0
BITMAP
FFC0
FFC0
0C00
0C00
0C00
0C00
0C00
0C00
0C00
0C00
0C00
0C00
0C00
ENDCHAR
STARTCHAR U
ENCODING 85
SWIDTH 602 0
DWIDTH 11 0
BBX 9 13 1 0
BITMAP
C180
C180
C180
C180
C180
C180
C180
C180
C180
C180
E380
7F00
3E00
ENDCHAR
STARTCHAR V
ENCODING 86
SWIDTH 602 0
DWIDTH 11 0
BBX 9 13 1 0
BITMAP
C180
C180
6300
6300
6300
7700
3600
3600
3600
1C00
1C00
1C00
1C00
ENDCHAR
STARTCHAR W
ENCODING 87
SWIDTH 602 0
DWIDTH 11 0
BBX 11 13 0 0
BITMAP
C060
C060
C060
60C0
6EC0
6EC0
6AC0
6AC0
6AC0
7BC0
3180
3180
3180
ENDCHAR
STARTCHAR X
ENCODING 88
SWIDTH 602 0
DWIDTH 11 0
BBX 9 13 1 0
BITMAP
E380
6300
7600
3600
1C00
1C00
1C00
1C00
3E00
3600
7700
6300
E380
ENDCHAR
STARTCHAR Y
ENCODING 89
SWIDTH 602 0
DWIDTH 11 0
BBX 10 13 1 0
BITMAP
E1C0
6180
7380
3300
1E00
1E00
0C00
0C00
0C00
0C00
0C00
0C00
0C00
ENDCHAR
STARTCHAR Z
ENCODING 90
SWIDTH 602 0
DWIDTH 11 0
BBX 9 13 1 0
BITMAP
FF80
FF80
0300
0700
0600
0C00
1C00
1800
3800
7000
6000
FF80
FF80
ENDCHAR
STARTCHAR bracketleft
ENCODING 91
SWIDTH 602 0
DWIDTH 11 0
BBX 4 16 4 -2
BITMAP
F0
F0
C0
C0
C0
C0
C0
C0
C0
C0
C0
C0
C0
C0
F0
F0
ENDCHAR
STARTCHAR backslash
ENCODING 92
SWIDTH 602 0
DWIDTH 11 0
BBX 9 15 1 -2
BITMAP
C000
6000
6000
3000
3000
1800
1800
1C00
0C00
0C00
0600
0600
0300
0300
0180
ENDCHAR
STARTCHAR bracketright
ENCODING 93
SWIDTH 602 0
DWIDTH 11 0
BBX 4 16 3 -2
BITMAP
F0
F0
30
30
30
30
30
30
30
30
30
30
30
30
F0
F0
ENDCHAR
STARTCHAR asciicircum
ENCODING 94
SWIDTH 602 0
DWIDTH 11 0
BBX 10 5 1 8
BITMAP
0C00
1E00
3300
6180
C0C0
ENDCHAR
STARTCHAR underscore
ENCODING 95
SWIDTH 602 0
DWIDTH 11 0
BBX 9 2 0 -4
BITMAP
FF80
FF80
ENDCHAR
STARTCHAR grave
ENCODING 96
SWIDTH 602 0
DWIDTH 11 0
BBX 4 3 2 11
BITMAP
C0
60
30
ENDCHAR
STARTCHAR a
ENCODING 97
SWIDTH 602 0
DWIDTH 11 0
BBX 9 10 1 0
BITMAP
3E00
7F00
4380
0180
3F80
FF80
C180
C380
FF80
7D80
ENDCHAR
STARTCHAR b
ENCODING 98
SWIDTH 602 0
DWIDTH 11 0
BBX 9 14 1 0
BITMAP
C000
C000
C000
C000
DE00
FF00
E380
C180
C180
C180
C180
E380
FF00
DE00
ENDCHAR
STARTCHAR c
ENCODING 99
SWIDTH 602 0
DWIDTH 11 0
BBX 8 10 1 0
BITMAP
1E
7F
61
C0
C0
C0
C0
61
7F
1E
ENDCHAR
STARTCHAR d
ENCODING 100
SWIDTH 602 0
DWIDTH 11 0
BBX 9 14 1 0
BITMAP
0180
0180
0180
0180
3D80
7F80
E380
C180
C180
C180
C180
E380
7F80
3D80
ENDCHAR
STARTCHAR e
ENCODING 101
SWIDTH 602 0
DWIDTH 11 0
BBX 9 10 1 0
BITMAP
3E00
7F00
6380
C180
FF80
FF80
C000
6080
7F80
1F00
ENDCHAR
STARTCHAR f
ENCODING 102
SWIDTH 602 0
DWIDTH 11 0
BBX 8 14 1 0
BITMAP
0F
1F
18
18
FF
FF
18
18
18
18
18
18
18
18
ENDCHAR
STARTCHAR g
ENCODING 103
SWIDTH 602 0
DWIDTH 11 0
BBX 9 14 1 -4
BITMAP
3D80
7F80
E380
C180
C180
C180
C180
E380
7F80
3D80
0180
4380
7F00
3E00
ENDCHAR
STARTCHAR h
ENCODING 104
SWIDTH 602 0
DWIDTH 11 0
BBX 9 14 1 0
BITMAP
C000
C000
C000
C000
CE00
FF00
E380
C180
C180
C180
C180
C180
C180
C180
ENDCHAR
STARTCHAR i
ENCODING 105
SWIDTH 602 0
DWIDTH 11 0
BBX 8 14 2 0
BITMAP
18
18
00
00
F8
F8
18
18
18
18
18
18
FF
FF
ENDCHAR
STARTCHAR j
ENCODING 106
SWIDTH 602 0
DWIDTH 11 0
BBX 6 18 1 -4
BITMAP
0C
0C
00
00
7C
7C
0C
0C
0C
0C
0C
0C
0C
0C
0C
0C
F8
F0
ENDCHAR
STARTCHAR k
ENCODING 107
SWIDTH 602 0
DWIDTH 11 0
BBX 9 14 1 0
BITMAP
C000
C000
C000
C000
C380
C700
CE00
DC00
F800
FC00
CC00
C600
C700
C380
ENDCHAR
STARTCHAR l
ENCODING 108
SWIDTH 602 0
DWIDTH 11 0
BBX 8 14 1 0
BITMAP
F8
F8
18
18
18
18
18
18
18
18
18
18
0F
0F
ENDCHAR
STARTCHAR m
ENCODING 109
SWIDTH 602 0
DWIDTH 11 0
BBX 10 10 1 0
BITMAP
DB80
FFC0
CCC0
CCC0
CCC0
CCC0
CCC0
CCC0
CCC0
CCC0
ENDCHAR
STARTCHAR n
ENCODING 110
SWIDTH 602 0
DWIDTH 11 0
BBX 9 10 1 0
BITMAP
CE00
FF00
E380
C180
C180
C180
C180
C180
C180
C180
ENDCHAR
STARTCHAR o
ENCODING 111
SWIDTH 602 0
DWIDTH 11 0
BBX 9 10 1 0
BITMAP
3E00
7F00
E380
C180
C180
C180
C180
E380
7F00
3E00
ENDCHAR
STARTCHAR p
ENCODING 112
SWIDTH 602 0
DWIDTH 11 0
BBX 9 14 1 -4
BITMAP
DE00
FF00
E380
C180
C180
C180
C180
E380
FF00
DE00
C000
C000
C000
C000
ENDCHAR
STARTCHAR q
ENCODING 113
SWIDTH 602 0
DWIDTH 11 0
BBX 9 14 1 -4
BITMAP
3D80
7F80
E380
C180
C180
C180
C180
E380
7F80
3D80
0180
0180
0180
0180
ENDCHAR
STARTCHAR r
ENCODING 114
SWIDTH 602 0
DWIDTH 11 0
BBX 7 10 3 0
BITMAP
DC
DE
E2
C0
C0
C0
C0
C0
C0
C0
ENDCHAR
STARTCHAR s
ENCODING 115
SWIDTH 602 0
DWIDTH 11 0
BBX 9 10 1 0
BITMAP
3F00
FF80
C080
F800
7F00
0780
0180
8180
FF80
7E00
ENDCHAR
STARTCHAR t
ENCODING 116
SWIDTH 602 0
DWIDTH 11 0
BBX 9 13 1 0
BITMAP
1800
1800
1800
FF80
FF80
1800
1800
1800
1800
1800
1800
1F80
0F80
ENDCHAR
STARTCHAR u
ENCODING 117
SWIDTH 602 0
DWIDTH 11 0
BBX 9 10 1 0
BITMAP
C180
C180
C180
C180
C180
C180
C180
E380
7F80
3980
ENDCHAR
STARTCHAR v
ENCODING 118
SWIDTH 602 0
DWIDTH 11 0
BBX 9 10 1 0
BITMAP
C180
6300
6300
6300
3600
3600
3600
1C00
1C00
1C00
ENDCHAR
STARTCHAR w
ENCODING 119
SWIDTH 602 0
DWIDTH 11 0
BBX 11 10 0 0
BITMAP
C060
C060
60C0
64C0
6EC0
6AC0
3B80
3B80
3180
3180
ENDCHAR
STARTCHAR x
ENCODING 120
SWIDTH 602 0
DWIDTH 11 0
BBX 9 10 1 0
BITMAP
E380
7700
3600
1C00
1C00
1C00
3E00
3600
6300
E380
ENDCHAR
STARTCHAR y
ENCODING 121
SWIDTH 602 0
DWIDTH 11 0
BBX 9 14 1 -4
BITMAP
C180
6300
6300
7300
3600
3600
1E00
1C00
0C00
1C00
1800
1800
7800
7000
ENDCHAR
STARTCHAR z
ENCODING 122
SWIDTH 602 0
DWIDTH 11 0
BBX 9 10 1 0
BITMAP
FF80
FF80
0700
0E00
1C00
1800
3000
7000
FF80
FF80
ENDCHAR
STARTCHAR braceleft
ENCODING 123
SWIDTH 602 0
DWIDTH 11 0
BBX 8 17 2 -3
BITMAP
0F
1F
18
18
18
18
18
F0
F0
38
18
18
18
18
18
1F
0F
ENDCHAR
STARTCHAR bar
ENCODING 124
SWIDTH 602 0
DWIDTH 11 0
BBX 2 18 5 -4
BITMAP
C0
C0
C0
C0
C0
C0
C0
C0
C0
C0
C0
C0
C0
C0
C0
C0
C0
C0
ENDCHAR
STARTCHAR braceright
ENCODING 125
SWIDTH 602 0
DWIDTH 11 0
BBX 8 17 2 -3
BITMAP
F0
F8
18
18
18
18
18
0F
0F
1C
18
18
18
18
18
F8
F0
ENDCHAR
STARTCHAR asciitilde
ENCODING 126
SWIDTH 602 0
DWIDTH 11 0
BBX 9 3 1 4
BITMAP
7880
FF80
8700
ENDCHAR
STARTCHAR nonbreakingspace
ENCODING 160
SWIDTH 602 0
DWIDTH 11 0
BBX 1 1 0 0
BITMAP
00
ENDCHAR
STARTCHAR exclamdown
ENCODING 161
SWIDTH 602 0
DWIDTH 11 0
BBX 2 13 5 0
BITMAP
C0
C0
00
00
C0
C0
C0
C0
C0
C0
C0
C0
C0
ENDCHAR
STARTCHAR cent
ENCODING 162
SWIDTH 602 0
DWIDTH 11 0
BBX 7 16 1 -3
BITMAP
08
08
08
3C
7E
EA
C8
C8
C8
C8
EA
7E
3C
08
08
08
ENDCHAR
STARTCHAR sterling
ENCODING 163
SWIDTH 602 0
DWIDTH 11 0
BBX 9 13 1 0
BITMAP
0F00
1F80
3880
3000
3000
3000
FE00
FE00
3000
3000
3000
FF80
FF80
ENDCHAR
STARTCHAR currency
ENCODING 164
SWIDTH 602 0
DWIDTH 11 0
BBX 8 8 2 2
BITMAP
81
7E
66
42
42
66
7E
81
ENDCHAR
STARTCHAR yen
ENCODING 165
SWIDTH 602 0
DWIDTH 11 0
BBX 10 13 1 0
BITMAP
E1C0
6180
7380
3300
3F00
FFC0
1E00
0C00
FFC0
0C00
0C00
0C00
0C00
ENDCHAR
STARTCHAR brokenbar
ENCODING 166
SWIDTH 602 0
DWIDTH 11 0
BBX 2 16 5 -3
BITMAP
C0
C0
C0
C0
C0
C0
C0
00
00
C0
C0
C0
C0
C0
C0
C0
ENDCHAR
STARTCHAR section
ENCODING 167
SWIDTH 602 0
DWIDTH 11 0
BBX 7 15 2 -2
BITMAP
3C
7C
60
60
30
78
CE
C6
66
3C
18
0C
0C
7C
78
ENDCHAR
STARTCHAR dieresis
ENCODING 168
SWIDTH 602 0
DWIDTH 11 0
BBX 6 2 3 12
BITMAP
CC
CC
ENDCHAR
STARTCHAR copyright
ENCODING 169
SWIDTH 602 0
DWIDTH 11 0
BBX 11 11 0 1
BITMAP
1F00
2080
4F40
9020
A020
A020
A020
9020
4F40
2080
1F00
ENDCHAR
STARTCHAR ordfeminine
ENCODING 170
SWIDTH 602 0
DWIDTH 11 0
BBX 7 9 2 4
BITMAP
7C
02
7E
C2
82
86
7A
00
FE
ENDCHAR
STARTCHAR guillemotleft
ENCODING 171
SWIDTH 602 0
DWIDTH 11 0
BBX 8 8 1 1
BITMAP
11
33
66
CC
CC
66
33
11
ENDCHAR
STARTCHAR logicalnot
ENCODING 172
SWIDTH 602 0
DWIDTH 11 0
BBX 9 4 1 4
BITMAP
FF80
FF80
0180
0180
ENDCHAR
STARTCHAR sfthyphen
ENCODING 173
SWIDTH 602 0
DWIDTH 11 0
BBX 5 2 3 4
BITMAP
F8
F8
ENDCHAR
STARTCHAR registered
ENCODING 174
SWIDTH 602 0
DWIDTH 11 0
BBX 11 11 0 1
BITMAP
1F00
2080
5E40
9120
9120
9E20
9220
9120
51C0
2080
1F00
ENDCHAR
STARTCHAR macron
ENCODING 175
SWIDTH 602 0
DWIDTH 11 0
BBX 5 2 3 11
BITMAP
F8
F8
ENDCHAR
STARTCHAR degree
ENCODING 176
SWIDTH 602 0
DWIDTH 11 0
BBX 6 6 3 7
BITMAP
78
CC
84
84
CC
78
ENDCHAR
STARTCHAR plusminus
ENCODING 177
SWIDTH 602 0
DWIDTH 11 0
BBX 10 10 1 0
BITMAP
0C00
0C00
0C00
FFC0
FFC0
0C00
0C00
0C00
FFC0
FFC0
ENDCHAR
STARTCHAR twosuperior
ENCODING 178
SWIDTH 602 0
DWIDTH 11 0
BBX 5 7 3 6
BITMAP
70
88
08
18
30
40
F8
ENDCHAR
STARTCHAR threesuperior
ENCODING 179
SWIDTH 602 0
DWIDTH 11 0
BBX 5 7 3 6
BITMAP
F0
08
70
08
08
08
F0
ENDCHAR
STARTCHAR acute
ENCODING 180
SWIDTH 602 0
DWIDTH 11 0
BBX 4 3 4 11
BITMAP
30
60
C0
ENDCHAR
STARTCHAR mu
ENCODING 181
SWIDTH 602 0
DWIDTH 11 0
BBX 10 14 1 -4
BITMAP
C180
C180
C180
C180
C180
C180
C180
E380
FFC0
DCC0
C000
C000
C000
C000
ENDCHAR
STARTCHAR paragraph
ENCODING 182
SWIDTH 602 0
DWIDTH 11 0
BBX 9 15 1 -2
BITMAP
3F80
7C80
FC80
FC80
FC80
7C80
3C80
0480
0480
0480
0480
0480
0480
0480
0480
ENDCHAR
STARTCHAR periodcentered
ENCODING 183
SWIDTH 602 0
DWIDTH 11 0
BBX 2 3 4 5
BITMAP
C0
C0
C0
ENDCHAR
STARTCHAR cedilla
ENCODING 184
SWIDTH 602 0
DWIDTH 11 0
BBX 3 3 4 -3
BITMAP
40
20
E0
ENDCHAR
STARTCHAR onesuperior
ENCODING 185
SWIDTH 602 0
DWIDTH 11 0
BBX 5 7 3 6
BITMAP
E0
20
20
20
20
20
F8
ENDCHAR
STARTCHAR ordmasculine
ENCODING 186
SWIDTH 602 0
DWIDTH 11 0
BBX 7 9 2 4
BITMAP
38
44
82
82
82
44
38
00
FE
ENDCHAR
STARTCHAR guillemotright
ENCODING 187
SWIDTH 602 0
DWIDTH 11 0
BBX 8 8 2 1
BITMAP
88
CC
66
33
33
66
CC
88
ENDCHAR
STARTCHAR onequarter
ENCODING 188
SWIDTH 602 0
DWIDTH 11 0
BBX 10 16 0 -2
BITMAP
7000
1000
1000
1000
1000
1000
7DC0
3F00
E000
0180
0280
0680
0C80
0FC0
0080
0080
ENDCHAR
STARTCHAR onehalf
ENCODING 189
SWIDTH 602 0
DWIDTH 11 0
BBX 10 16 0 -2
BITMAP
7000
1000
1000
1000
1000
1000
7DC0
3F00
E000
0380
0440
0040
00C0
0180
0200
07C0
ENDCHAR
STARTCHAR threequarters
ENCODING 190
SWIDTH 602 0
DWIDTH 11 0
BBX 10 16 0 -2
BITMAP
7800
0400
3800
0400
0400
0400
79C0
3F00
E000
0180
0280
0680
0C80
0FC0
0080
0080
ENDCHAR
STARTCHAR questiondown
ENCODING 191
SWIDTH 602 0
DWIDTH 11 0
BBX 7 13 2 0
BITMAP
18
18
00
18
18
18
38
70
E0
C0
C2
FE
7C
ENDCHAR
STARTCHAR Agrave
ENCODING 192
SWIDTH 602 0
DWIDTH 11 0
BBX 9 16 1 0
BITMAP
3000
1800
0000
1C00
1C00
1C00
1C00
3600
3600
3600
3600
7F00
7F00
6300
C180
C180
ENDCHAR
STARTCHAR Aacute
ENCODING 193
SWIDTH 602 0
DWIDTH 11 0
BBX 9 16 1 0
BITMAP
0C00
1800
0000
1C00
1C00
1C00
1C00
3600
3600
3600
3600
7F00
7F00
6300
C180
C180
ENDCHAR
STARTCHAR Acircumflex
ENCODING 194
SWIDTH 602 0
DWIDTH 11 0
BBX 9 16 1 0
BITMAP
1C00
3600
0000
1C00
1C00
1C00
1C00
3600
3600
3600
3600
7F00
7F00
6300
C180
C180
ENDCHAR
STARTCHAR Atilde
ENCODING 195
SWIDTH 602 0
DWIDTH 11 0
BBX 9 16 1 0
BITMAP
1900
2600
0000
1C00
1C00
1C00
1C00
3600
3600
3600
3600
7F00
7F00
6300
C180
C180
ENDCHAR
STARTCHAR Adieresis
ENCODING 196
SWIDTH 602 0
DWIDTH 11 0
BBX 9 16 1 0
BITMAP
3300
3300
0000
1C00
1C00
1C00
1C00
3600
3600
3600
3600
7F00
7F00
6300
C180
C180
ENDCHAR
STARTCHAR Aring
ENCODING 197
SWIDTH 602 0
DWIDTH 11 0
BBX 9 17 1 0
BITMAP
0800
1400
1400
1400
0800
0800
1C00
1C00
1C00
3E00
3600
3600
7F00
7F00
6300
E380
C180
ENDCHAR
STARTCHAR AE
ENCODING 198
SWIDTH 602 0
DWIDTH 11 0
BBX 11 13 0 0
BITMAP
0FE0
1FE0
1B00
1B00
1B00
33E0
33E0
3300
7F00
7F00
6300
E3E0
C3E0
ENDCHAR
STARTCHAR Ccedilla
ENCODING 199
SWIDTH 602 0
DWIDTH 11 0
BBX 9 16 1 -3
BITMAP
1F00
3F80
7080
E000
C000
C000
C000
C000
C000
E000
7080
3F80
1F00
0400
0200
0E00
ENDCHAR
STARTCHAR Egrave
ENCODING 200
SWIDTH 602 0
DWIDTH 11 0
BBX 9 16 1 0
BITMAP
3000
1800
0000
FF80
FF80
C000
C000
C000
FF80
FF80
C000
C000
C000
C000
FF80
FF80
ENDCHAR
STARTCHAR Eacute
ENCODING 201
SWIDTH 602 0
DWIDTH 11 0
BBX 9 16 1 0
BITMAP
0C00
1800
0000
FF80
FF80
C000
C000
C000
FF80
FF80
C000
C000
C000
C000
FF80
FF80
ENDCHAR
STARTCHAR Ecircumflex
ENCODING 202
SWIDTH 602 0
DWIDTH 11 0
BBX 9 16 1 0
BITMAP
1C00
3600
0000
FF80
FF80
C000
C000
C000
FF80
FF80
C000
C000
C000
C000
FF80
FF80
ENDCHAR
STARTCHAR Edieresis
ENCODING 203
SWIDTH 602 0
DWIDTH 11 0
BBX 9 16 1 0
BITMAP
3300
3300
0000
FF80
FF80
C000
C000
C000
FF80
FF80
C000
C000
C000
C000
FF80
FF80
ENDCHAR
STARTCHAR Igrave
ENCODING 204
SWIDTH 602 0
DWIDTH 11 0
BBX 8 16 2 0
BITMAP
60
30
00
FF
FF
18
18
18
18
18
18
18
18
18
FF
FF
ENDCHAR
STARTCHAR Iacute
ENCODING 205
SWIDTH 602 0
DWIDTH 11 0
BBX 8 16 2 0
BITMAP
18
30
00
FF
FF
18
18
18
18
18
18
18
18
18
FF
FF
ENDCHAR
STARTCHAR Icircumflex
ENCODING 206
SWIDTH 602 0
DWIDTH 11 0
BBX 8 16 2 0
BITMAP
38
6C
00
FF
FF
18
18
18
18
18
18
18
18
18
FF
FF
ENDCHAR
STARTCHAR Idieresis
ENCODING 207
SWIDTH 602 0
DWIDTH 11 0
BBX 8 16 2 0
BITMAP
66
66
00
FF
FF
18
18
18
18
18
18
18
18
18
FF
FF
ENDCHAR
STARTCHAR Eth
ENCODING 208
SWIDTH 602 0
DWIDTH 11 0
BBX 10 13 0 0
BITMAP
7E00
7F00
6380
61C0
60C0
F8C0
F8C0
60C0
60C0
61C0
6380
7F00
7E00
ENDCHAR
STARTCHAR Ntilde
ENCODING 209
SWIDTH 602 0
DWIDTH 11 0
BBX 9 16 1 0
BITMAP
1900
2600
0000
E180
E180
F180
D180
D180
D980
C980
CD80
C580
C580
C780
C380
C380
ENDCHAR
STARTCHAR Ograve
ENCODING 210
SWIDTH 602 0
DWIDTH 11 0
BBX 9 16 1 0
BITMAP
3000
1800
0000
3E00
7F00
6300
C180
C180
C180
C180
C180
C180
C180
6300
7F00
3E00
ENDCHAR
STARTCHAR Oacute
ENCODING 211
SWIDTH 602 0
DWIDTH 11 0
BBX 9 16 1 0
BITMAP
0C00
1800
0000
3E00
7F00
6300
C180
C180
C180
C180
C180
C180
C180
6300
7F00
3E00
ENDCHAR
STARTCHAR Ocircumflex
ENCODING 212
SWIDTH 602 0
DWIDTH 11 0
BBX 9 16 1 0
BITMAP
1C00
3600
0000
3E00
7F00
6300
C180
C180
C180
C180
C180
C180
C180
6300
7F00
3E00
ENDCHAR
STARTCHAR Otilde
ENCODING 213
SWIDTH 602 0
DWIDTH 11 0
BBX 9 16 1 0
BITMAP
1900
2600
0000
3E00
7F00
6300
C180
C180
C180
C180
C180
C180
C180
6300
7F00
3E00
ENDCHAR
STARTCHAR Odieresis
ENCODING 214
SWIDTH 602 0
DWIDTH 11 0
BBX 9 16 1 0
BITMAP
3300
3300
0000
3E00
7F00
6300
C180
C180
C180
C180
C180
C180
C180
6300
7F00
3E00
ENDCHAR
STARTCHAR multiply
ENCODING 215
SWIDTH 602 0
DWIDTH 11 0
BBX 8 8 1 2
BITMAP
C3
E7
7E
3C
3C
7E
E7
42
ENDCHAR
STARTCHAR Oslash
ENCODING 216
SWIDTH 602 0
DWIDTH 11 0
BBX 11 13 0 0
BITMAP
1E60
3F40
3180
61C0
63C0
62C0
64C0
68C0
70C0
70C0
7180
5F80
8F00
ENDCHAR
STARTCHAR Ugrave
ENCODING 217
SWIDTH 602 0
DWIDTH 11 0
BBX 9 16 1 0
BITMAP
3000
1800
0000
C180
C180
C180
C180
C180
C180
C180
C180
C180
C180
E380
7F00
3E00
ENDCHAR
STARTCHAR Uacute
ENCODING 218
SWIDTH 602 0
DWIDTH 11 0
BBX 9 16 1 0
BITMAP
0C00
1800
0000
C180
C180
C180
C180
C180
C180
C180
C180
C180
C180
E380
7F00
3E00
ENDCHAR
STARTCHAR Ucircumflex
ENCODING 219
SWIDTH 602 0
DWIDTH 11 0
BBX 9 16 1 0
BITMAP
1C00
3600
0000
C180
C180
C180
C180
C180
C180
C180
C180
C180
C180
E380
7F00
3E00
ENDCHAR
STARTCHAR Udieresis
ENCODING 220
SWIDTH 602 0
DWIDTH 11 0
BBX 9 16 1 0
BITMAP
3300
3300
0000
C180
C180
C180
C180
C180
C180
C180
C180
C180
C180
E380
7F00
3E00
ENDCHAR
STARTCHAR Yacute
ENCODING 221
SWIDTH 602 0
DWIDTH 11 0
BBX 10 16 1 0
BITMAP
0C00
1800
0000
E1C0
6180
7380
3300
1E00
1E00
0C00
0C00
0C00
0C00
0C00
0C00
0C00
ENDCHAR
STARTCHAR Thorn
ENCODING 222
SWIDTH 602 0
DWIDTH 11 0
BBX 9 13 1 0
BITMAP
C000
C000
FE00
FF00
C380
C180
C180
C380
FF00
FE00
C000
C000
C000
ENDCHAR
STARTCHAR germandbls
ENCODING 223
SWIDTH 602 0
DWIDTH 11 0
BBX 9 14 1 0
BITMAP
3C00
7E00
C300
C300
C600
CC00
CC00
C600
C300
C180
C180
D180
DF80
CF00
ENDCHAR
STARTCHAR agrave
ENCODING 224
SWIDTH 602 0
DWIDTH 11 0
BBX 9 14 1 0
BITMAP
6000
3000
1800
0000
3E00
7F00
4380
0180
3F80
FF80
C180
C380
FF80
7D80
ENDCHAR
STARTCHAR aacute
ENCODING 225
SWIDTH 602 0
DWIDTH 11 0
BBX 9 14 1 0
BITMAP
0600
0C00
1800
0000
3E00
7F00
4380
0180
3F80
FF80
C180
C380
FF80
7D80
ENDCHAR
STARTCHAR acircumflex
ENCODING 226
SWIDTH 602 0
DWIDTH 11 0
BBX 9 14 1 0
BITMAP
0C00
1E00
3300
0000
3E00
7F00
4380
0180
3F80
FF80
C180
C380
FF80
7D80
ENDCHAR
STARTCHAR atilde
ENCODING 227
SWIDTH 602 0
DWIDTH 11 0
BBX 9 14 1 0
BITMAP
3900
2700
0000
0000
3E00
7F00
4380
0180
3F80
FF80
C180
C380
FF80
7D80
ENDCHAR
STARTCHAR adieresis
ENCODING 228
SWIDTH 602 0
DWIDTH 11 0
BBX 9 14 1 0
BITMAP
3300
3300
0000
0000
3E00
7F00
4380
0180
3F80
FF80
C180
C380
FF80
7D80
ENDCHAR
STARTCHAR aring
ENCODING 229
SWIDTH 602 0
DWIDTH 11 0
BBX 9 16 1 0
BITMAP
1C00
2200
2200
2200
1C00
0000
3E00
7F00
4380
0180
3F80
FF80
C180
C380
FF80
7D80
ENDCHAR
STARTCHAR ae
ENCODING 230
SWIDTH 602 0
DWIDTH 11 0
BBX 9 10 1 0
BITMAP
6700
7F80
1980
1980
7F80
FF80
D800
D880
FF80
6700
ENDCHAR
STARTCHAR ccedilla
ENCODING 231
SWIDTH 602 0
DWIDTH 11 0
BBX 8 13 1 -3
BITMAP
1E
7F
61
C0
C0
C0
C0
61
7F
1E
04
02
0E
ENDCHAR
STARTCHAR egrave
ENCODING 232
SWIDTH 602 0
DWIDTH 11 0
BBX 9 14 1 0
BITMAP
6000
3000
1800
0000
3E00
7F00
6380
C180
FF80
FF80
C000
6080
7F80
1F00
ENDCHAR
STARTCHAR eacute
ENCODING 233
SWIDTH 602 0
DWIDTH 11 0
BBX 9 14 1 0
BITMAP
0600
0C00
1800
0000
3E00
7F00
6380
C180
FF80
FF80
C000
6080
7F80
1F00
ENDCHAR
STARTCHAR ecircumflex
ENCODING 234
SWIDTH 602 0
DWIDTH 11 0
BBX 9 14 1 0
BITMAP
0C00
1E00
3300
0000
3E00
7F00
6380
C180
FF80
FF80
C000
6080
7F80
1F00
ENDCHAR
STARTCHAR edieresis
ENCODING 235
SWIDTH 602 0
DWIDTH 11 0
BBX 9 14 1 0
BITMAP
3300
3300
0000
0000
3E00
7F00
6380
C180
FF80
FF80
C000
6080
7F80
1F00
ENDCHAR
STARTCHAR igrave
ENCODING 236
SWIDTH 602 0
DWIDTH 11 0
BBX 8 14 2 0
BITMAP
C0
60
30
00
F8
F8
18
18
18
18
18
18
FF
FF
ENDCHAR
STARTCHAR iacute
ENCODING 237
SWIDTH 602 0
DWIDTH 11 0
BBX 8 14 2 0
BITMAP
0C
18
30
00
F8
F8
18
18
18
18
18
18
FF
FF
ENDCHAR
STARTCHAR icircumflex
ENCODING 238
SWIDTH 602 0
DWIDTH 11 0
BBX 8 14 2 0
BITMAP
18
3C
66
00
F8
F8
18
18
18
18
18
18
FF
FF
ENDCHAR
STARTCHAR idieresis
ENCODING 239
SWIDTH 602 0
DWIDTH 11 0
BBX 8 14 2 0
BITMAP
66
66
00
00
F8
F8
18
18
18
18
18
18
FF
FF
ENDCHAR
STARTCHAR eth
ENCODING 240
SWIDTH 602 0
DWIDTH 11 0
BBX 9 14 1 0
BITMAP
7000
3E00
7C00
0E00
3F00
7F00
E380
C180
C180
C180
C180
E380
7F00
3E00
ENDCHAR
STARTCHAR ntilde
ENCODING 241
SWIDTH 602 0
DWIDTH 11 0
BBX 9 14 1 0
BITMAP
3900
2700
0000
0000
CE00
FF00
E380
C180
C180
C180
C180
C180
C180
C180
ENDCHAR
STARTCHAR ograve
ENCODING 242
SWIDTH 602 0
DWIDTH 11 0
BBX 9 14 1 0
BITMAP
6000
3000
1800
0000
3E00
7F00
E380
C180
C180
C180
C180
E380
7F00
3E00
ENDCHAR
STARTCHAR oacute
ENCODING 243
SWIDTH 602 0
DWIDTH 11 0
BBX 9 14 1 0
BITMAP
0600
0C00
1800
0000
3E00
7F00
E380
C180
C180
C180
C180
E380
7F00
3E00
ENDCHAR
STARTCHAR ocircumflex
ENCODING 244
SWIDTH 602 0
DWIDTH 11 0
BBX 9 14 1 0
BITMAP
0C00
1E00
3300
0000
3E00
7F00
E380
C180
C180
C180
C180
E380
7F00
3E00
ENDCHAR
STARTCHAR otilde
ENCODING 245
SWIDTH 602 0
DWIDTH 11 0
BBX 9 14 1 0
BITMAP
3900
2700
0000
0000
3E00
7F00
E380
C180
C180
C180
C180
E380
7F00
3E00
ENDCHAR
STARTCHAR odieresis
ENCODING 246
SWIDTH 602 0
DWIDTH 11 0
BBX 9 14 1 0
BITMAP
3300
3300
0000
0000
3E00
7F00
E380
C180
C180
C180
C180
E380
7F00
3E00
ENDCHAR
STARTCHAR divide
ENCODING 247
SWIDTH 602 0
DWIDTH 11 0
BBX 10 8 0 2
BITMAP
0C00
0C00
0000
FFC0
FFC0
0000
0C00
0C00
ENDCHAR
STARTCHAR oslash
ENCODING 248
SWIDTH 602 0
DWIDTH 11 0
BBX 9 10 1 0
BITMAP
3C80
7F80
E300
C780
CD80
D980
F180
6380
FF00
9E00
ENDCHAR
STARTCHAR ugrave
ENCODING 249
SWIDTH 602 0
DWIDTH 11 0
BBX 9 14 1 0
BITMAP
6000
3000
1800
0000
C180
C180
C180
C180
C180
C180
C180
E380
7F80
3980
ENDCHAR
STARTCHAR uacute
ENCODING 250
SWIDTH 602 0
DWIDTH 11 0
BBX 9 14 1 0
BITMAP
0600
0C00
1800
0000
C180
C180
C180
C180
C180
C180
C180
E380
7F80
3980
ENDCHAR
STARTCHAR ucircumflex
ENCODING 251
SWIDTH 602 0
DWIDTH 11 0
BBX 9 14 1 0
BITMAP
0C00
1E00
3300
0000
C180
C180
C180
C180
C180
C180
C180
E380
7F80
3980
ENDCHAR
STARTCHAR udieresis
ENCODING 252
SWIDTH 602 0
DWIDTH 11 0
BBX 9 14 1 0
BITMAP
3300
3300
0000
0000
C180
C180
C180
C180
C180
C180
C180
E380
7F80
3980
ENDCHAR
STARTCHAR yacute
ENCODING 253
SWIDTH 602 0
DWIDTH 11 0
BBX 9 18 1 -4
BITMAP
0600
0C00
1800
0000
C180
6300
6300
7300
3600
3600
1E00
1C00
0C00
1C00
1800
1800
7800
7000
ENDCHAR
STARTCHAR thorn
ENCODING 254
SWIDTH 602 0
DWIDTH 11 0
BBX 9 18 1 -4
BITMAP
C000
C000
C000
C000
DE00
FF00
E380
C180
C180
C180
C180
E380
FF00
DE00
C000
C000
C000
C000
ENDCHAR
STARTCHAR ydieresis
ENCODING 255
SWIDTH 602 0
DWIDTH 11 0
BBX 9 18 1 -4
BITMAP
3300
3300
0000
0000
C180
6300
6300
7300
3600
3600
1E00
1C00
0C00
1C00
1800
1800
7800
7000
ENDCHAR
STARTCHAR .notdef
ENCODING -1
SWIDTH 602 0
DWIDTH 11 0
BBX 9 16 1 -3
BITMAP
FF80
8080
8080
8080
8080
8080
8080
8080
8080
8080
8080
8080
8080
8080
8080
FF80
ENDCHAR
STARTCHAR .null
ENCODING -1
SWIDTH 0 0
DWIDTH 0 0
BBX 1 1 0 0
BITMAP
00
ENDCHAR
STARTCHAR nonmarkingreturn
ENCODING -1
SWIDTH 602 0
DWIDTH 11 0
BBX 1 1 0 0
BITMAP
00
ENDCHAR
STARTCHAR dagger
ENCODING -1
SWIDTH 602 0
DWIDTH 11 0
BBX 8 15 2 -2
BITMAP
18
18
18
18
FF
FF
18
18
18
18
18
18
18
18
18
ENDCHAR
STARTCHAR bullet
ENCODING -1
SWIDTH 602 0
DWIDTH 11 0
BBX 5 5 3 4
BITMAP
70
F8
F8
F8
70
ENDCHAR
STARTCHAR trademark
ENCODING -1
SWIDTH 602 0
DWIDTH 11 0
BBX 9 5 0 8
BITMAP
ED80
4D80
4A80
4880
4880
ENDCHAR
STARTCHAR notequal
ENCODING -1
SWIDTH 602 0
DWIDTH 11 0
BBX 9 12 1 0
BITMAP
0100
0100
0300
FF80
FF80
0C00
1800
FF80
FF80
6000
4000
4000
ENDCHAR
STARTCHAR infinity
ENCODING -1
SWIDTH 602 0
DWIDTH 11 0
BBX 10 7 0 2
BITMAP
7380
DE40
8C40
8C40
8C40
9EC0
7380
ENDCHAR
STARTCHAR lessequal
ENCODING -1
SWIDTH 602 0
DWIDTH 11 0
BBX 9 10 1 0
BITMAP
0180
0F80
7C00
C000
7C00
0F80
0180
0000
FF80
FF80
ENDCHAR
STARTCHAR greaterequal
ENCODING -1
SWIDTH 602 0
DWIDTH 11 0
BBX 9 10 1 0
BITMAP
C000
F800
1F00
0180
1F00
F800
C000
0000
FF80
FF80
ENDCHAR
STARTCHAR partialdiff
ENCODING -1
SWIDTH 602 0
DWIDTH 11 0
BBX 8 12 2 0
BITMAP
1C
32
01
01
01
39
67
C3
C2
C2
C4
78
ENDCHAR
STARTCHAR summation
ENCODING -1
SWIDTH 602 0
DWIDTH 11 0
BBX 8 17 1 -4
BITMAP
FF
C0
60
20
30
10
08
0C
0C
08
18
10
30
20
40
C0
FF
ENDCHAR
STARTCHAR product
ENCODING -1
SWIDTH 602 0
DWIDTH 11 0
BBX 8 17 1 -4
BITMAP
FF
81
81
81
81
81
81
81
81
81
81
81
81
81
81
81
81
ENDCHAR
STARTCHAR pi
ENCODING -1
SWIDTH 602 0
DWIDTH 11 0
BBX 10 10 1 0
BITMAP
FF80
6300
6300
6300
6300
6300
6300
6300
6300
61C0
ENDCHAR
STARTCHAR integral
ENCODING -1
SWIDTH 602 0
DWIDTH 11 0
BBX 8 17 2 -3
BITMAP
07
0C
08
18
18
18
18
18
18
18
18
18
18
18
10
30
E0
ENDCHAR
STARTCHAR Omega
ENCODING -1
SWIDTH 602 0
DWIDTH 11 0
BBX 9 12 1 0
BITMAP
3E00
7F00
6300
C180
C180
C180
C180
C180
6300
2200
F780
F780
ENDCHAR
STARTCHAR radical
ENCODING -1
SWIDTH 602 0
DWIDTH 11 0
BBX 10 15 1 0
BITMAP
00C0
0080
0080
0180
0100
0100
0300
E200
2200
2600
3400
1400
1C00
1800
0800
ENDCHAR
STARTCHAR florin
ENCODING -1
SWIDTH 602 0
DWIDTH 11 0
BBX 11 18 0 -4
BITMAP
01E0
01E0
0300
0300
0300
0300
0600
1FC0
1FC0
0600
0600
0600
0C00
0C00
0C00
1C00
F800
F000
ENDCHAR
STARTCHAR approxequal
ENCODING -1
SWIDTH 602 0
DWIDTH 11 0
BBX 9 7 1 2
BITMAP
7880
FF80
8700
0000
7880
FF80
8700
ENDCHAR
STARTCHAR Delta
ENCODING -1
SWIDTH 602 0
DWIDTH 11 0
BBX 11 12 0 0
BITMAP
0E00
0E00
0E00
1B00
1B00
3B80
3180
3180
60C0
60C0
7FC0
FFE0
ENDCHAR
STARTCHAR ellipsis
ENCODING -1
SWIDTH 602 0
DWIDTH 11 0
BBX 10 3 1 0
BITMAP
CCC0
CCC0
CCC0
ENDCHAR
STARTCHAR OE
ENCODING -1
SWIDTH 602 0
DWIDTH 11 0
BBX 9 13 1 0
BITMAP
3F80
7F80
EC00
CC00
CC00
CF80
CF80
CC00
CC00
CC00
EC00
7F80
3F80
ENDCHAR
STARTCHAR oe
ENCODING -1
SWIDTH 602 0
DWIDTH 11 0
BBX 9 10 1 0
BITMAP
6700
FF80
D980
D980
DF80
DF80
D800
D880
FF80
6700
ENDCHAR
STARTCHAR endash
ENCODING -1
SWIDTH 602 0
DWIDTH 11 0
BBX 11 2 0 4
BITMAP
FFE0
FFE0
ENDCHAR
STARTCHAR emdash
ENCODING -1
SWIDTH 602 0
DWIDTH 11 0
BBX 11 2 0 4
BITMAP
FFE0
FFE0
ENDCHAR
STARTCHAR quotedblleft
ENCODING -1
SWIDTH 602 0
DWIDTH 11 0
BBX 7 5 2 9
BITMAP
22
66
CC
CC
CC
ENDCHAR
STARTCHAR quotedblright
ENCODING -1
SWIDTH 602 0
DWIDTH 11 0
BBX 7 5 2 9
BITMAP
66
66
66
CC
88
ENDCHAR
STARTCHAR quoteleft
ENCODING -1
SWIDTH 602 0
DWIDTH 11 0
BBX 3 5 4 9
BITMAP
20
60
C0
C0
C0
ENDCHAR
STARTCHAR quoteright
ENCODING -1
SWIDTH 602 0
DWIDTH 11 0
BBX 3 5 4 9
BITMAP
60
60
60
C0
80
ENDCHAR
STARTCHAR lozenge
ENCODING -1
SWIDTH 602 0
DWIDTH 11 0
BBX 9 19 1 -4
BITMAP
0800
0800
1400
1400
2200
2200
4100
4100
C180
8080
8080
4100
4100
2200
2200
1400
1400
0800
0800
ENDCHAR
STARTCHAR Ydieresis
ENCODING -1
SWIDTH 602 0
DWIDTH 11 0
BBX 10 16 1 0
BITMAP
3300
3300
0000
E1C0
6180
7380
3300
1E00
1E00
0C00
0C00
0C00
0C00
0C00
0C00
0C00
ENDCHAR
STARTCHAR fraction
ENCODING -1
SWIDTH 602 0
DWIDTH 11 0
BBX 9 15 1 -2
BITMAP
0180
0300
0300
0600
0600
0C00
0C00
1C00
1800
1800
3000
3000
6000
6000
C000
ENDCHAR
STARTCHAR guilsinglleft
ENCODING -1
SWIDTH 602 0
DWIDTH 11 0
BBX 4 8 3 1
BITMAP
10
30
60
C0
C0
60
30
10
ENDCHAR
STARTCHAR guilsinglright
ENCODING -1
SWIDTH 602 0
DWIDTH 11 0
BBX 4 8 4 1
BITMAP
80
C0
60
30
30
60
C0
80
ENDCHAR
STARTCHAR fi
ENCODING -1
SWIDTH 602 0
DWIDTH 11 0
BBX 10 14 0 0
BITMAP
3CC0
7CC0
6000
6000
FFC0
FFC0
60C0
60C0
60C0
60C0
60C0
60C0
60C0
60C0
ENDCHAR
STARTCHAR fl
ENCODING -1
SWIDTH 602 0
DWIDTH 11 0
BBX 10 14 0 0
BITMAP
3FC0
7FC0
60C0
60C0
FCC0
FCC0
60C0
60C0
60C0
60C0
60C0
60C0
60C0
60C0
ENDCHAR
STARTCHAR daggerdbl
ENCODING -1
SWIDTH 602 0
DWIDTH 11 0
BBX 8 15 2 -2
BITMAP
18
18
18
18
FF
FF
18
18
18
FF
FF
18
18
18
18
ENDCHAR
STARTCHAR quotesinglbase
ENCODING -1
SWIDTH 602 0
DWIDTH 11 0
BBX 3 5 3 -2
BITMAP
60
60
60
C0
80
ENDCHAR
STARTCHAR quotedblbase
ENCODING -1
SWIDTH 602 0
DWIDTH 11 0
BBX 7 5 2 -2
BITMAP
66
66
66
CC
88
ENDCHAR
STARTCHAR perthousand
ENCODING -1
SWIDTH 602 0
DWIDTH 11 0
BBX 11 13 0 0
BITMAP
7000
8800
8800
8840
7380
0C00
7000
C000
71C0
8A20
8A20
8A20
71C0
ENDCHAR
STARTCHAR dotlessi
ENCODING -1
SWIDTH 602 0
DWIDTH 11 0
BBX 8 10 2 0
BITMAP
F8
F8
18
18
18
18
18
18
FF
FF
ENDCHAR
STARTCHAR circumflex
ENCODING -1
SWIDTH 602 0
DWIDTH 11 0
BBX 6 3 3 11
BITMAP
30
78
CC
ENDCHAR
STARTCHAR tilde
ENCODING -1
SWIDTH 602 0
DWIDTH 11 0
BBX 6 2 3 12
BITMAP
E4
9C
ENDCHAR
STARTCHAR breve
ENCODING -1
SWIDTH 602 0
DWIDTH 11 0
BBX 6 2 3 12
BITMAP
84
78
ENDCHAR
STARTCHAR dotaccent
ENCODING -1
SWIDTH 602 0
DWIDTH 11 0
BBX 2 2 5 12
BITMAP
C0
C0
ENDCHAR
STARTCHAR ring
ENCODING -1
SWIDTH 602 0
DWIDTH 11 0
BBX 5 5 3 11
BITMAP
70
88
88
88
70
ENDCHAR
STARTCHAR hungarumlaut
ENCODING -1
SWIDTH 602 0
DWIDTH 11 0
BBX 6 3 3 11
BITMAP
6C
48
90
ENDCHAR
STARTCHAR ogonek
ENCODING -1
SWIDTH 602 0
DWIDTH 11 0
BBX 3 3 4 -3
BITMAP
80
80
E0
ENDCHAR
STARTCHAR caron
ENCODING -1
SWIDTH 602 0
DWIDTH 11 0
BBX 6 3 3 11
BITMAP
CC
78
30
ENDCHAR
STARTCHAR Lslash
ENCODING -1
SWIDTH 602 0
DWIDTH 11 0
BBX 10 13 0 0
BITMAP
6000
6000
6000
6000
6C00
7800
6000
E000
6000
6000
6000
7FC0
7FC0
ENDCHAR
STARTCHAR lslash
ENCODING -1
SWIDTH 602 0
DWIDTH 11 0
BBX 9 14 0 0
BITMAP
7C00
7C00
0C00
0C00
0D80
0F00
0C00
3C00
EC00
0C00
0C00
0C00
0780
0780
ENDCHAR
STARTCHAR Scaron
ENCODING -1
SWIDTH 602 0
DWIDTH 11 0
BBX 9 16 1 0
BITMAP
3600
1C00
0000
3E00
7F00
E100
C000
C000
7C00
3F00
0380
0180
0180
8380
FF00
7E00
ENDCHAR
STARTCHAR scaron
ENCODING -1
SWIDTH 602 0
DWIDTH 11 0
BBX 9 14 1 0
BITMAP
3300
1E00
0C00
0000
3F00
FF80
C080
F800
7F00
0780
0180
8180
FF80
7E00
ENDCHAR
STARTCHAR Zcaron
ENCODING -1
SWIDTH 602 0
DWIDTH 11 0
BBX 9 16 1 0
BITMAP
3600
1C00
0000
FF80
FF80
0300
0700
0600
0C00
1C00
1800
3800
7000
6000
FF80
FF80
ENDCHAR
STARTCHAR zcaron
ENCODING -1
SWIDTH 602 0
DWIDTH 11 0
BBX 9 14 1 0
BITMAP
3300
1E00
0C00
0000
FF80
FF80
0700
0E00
1C00
1800
3000
7000
FF80
FF80
ENDCHAR
STARTCHAR minus
ENCODING -1
SWIDTH 602 0
DWIDTH 11 0
BBX 9 2 1 5
BITMAP
FF80
FF80
ENDCHAR
STARTCHAR Gbreve
ENCODING -1
SWIDTH 602 0
DWIDTH 11 0
BBX 9 16 1 0
BITMAP
2100
1E00
0000
1F00
3F80
7080
E000
C000
C780
C780
C180
C180
E180
6180
3F80
1E00
ENDCHAR
STARTCHAR gbreve
ENCODING -1
SWIDTH 602 0
DWIDTH 11 0
BBX 9 18 1 -4
BITMAP
2100
1E00
0000
0000
3D80
7F80
E380
C180
C180
C180
C180
E380
7F80
3D80
0180
4380
7F00
3E00
ENDCHAR
STARTCHAR Idotaccent
ENCODING -1
SWIDTH 602 0
DWIDTH 11 0
BBX 8 16 2 0
BITMAP
18
18
00
FF
FF
18
18
18
18
18
18
18
18
18
FF
FF
ENDCHAR
STARTCHAR Scedilla
ENCODING -1
SWIDTH 602 0
DWIDTH 11 0
BBX 9 16 1 -3
BITMAP
3E00
7F00
E100
C000
C000
7C00
3F00
0380
0180
0180
8380
FF00
7E00
0800
0400
1C00
ENDCHAR
STARTCHAR scedilla
ENCODING -1
SWIDTH 602 0
DWIDTH 11 0
BBX 9 13 1 -3
BITMAP
3F00
FF80
C080
F800
7F00
0780
0180
8180
FF80
7E00
0800
0400
1C00
ENDCHAR
STARTCHAR Cacute
ENCODING -1
SWIDTH 602 0
DWIDTH 11 0
BBX 9 16 1 0
BITMAP
0600
0C00
0000
1F00
3F80
7080
E000
C000
C000
C000
C000
C000
E000
7080
3F80
1F00
ENDCHAR
STARTCHAR cacute
ENCODING -1
SWIDTH 602 0
DWIDTH 11 0
BBX 8 14 1 0
BITMAP
03
06
0C
00
1E
7F
61
C0
C0
C0
C0
61
7F
1E
ENDCHAR
STARTCHAR Ccaron
ENCODING -1
SWIDTH 602 0
DWIDTH 11 0
BBX 9 16 1 0
BITMAP
1B00
0E00
0000
1F00
3F80
7080
E000
C000
C000
C000
C000
C000
E000
7080
3F80
1F00
ENDCHAR
STARTCHAR ccaron
ENCODING -1
SWIDTH 602 0
DWIDTH 11 0
BBX 9 14 1 0
BITMAP
1980
0F00
0600
0000
1E00
7F00
6100
C000
C000
C000
C000
6100
7F00
1E00
ENDCHAR
STARTCHAR dcroat
ENCODING -1
SWIDTH 602 0
DWIDTH 11 0
BBX 11 14 1 0
BITMAP
0180
0180
0FE0
0180
3D80
7F80
E380
C180
C180
C180
C180
E380
7F80
3D80
ENDCHAR
STARTCHAR periodcentered
ENCODING -1
SWIDTH 602 0
DWIDTH 11 0
BBX 2 3 4 5
BITMAP
C0
C0
C0
ENDCHAR
STARTCHAR Euro
ENCODING -1
SWIDTH 602 0
DWIDTH 11 0
BBX 9 13 1 0
BITMAP
0F00
3F80
3080
6000
FE00
6000
6000
FC00
6000
7000
3080
1F80
0F00
ENDCHAR
STARTCHAR c6459
ENCODING -1
SWIDTH 602 0
DWIDTH 11 0
BBX 6 2 3 11
BITMAP
CC
CC
ENDCHAR
STARTCHAR c6460
ENCODING -1
SWIDTH 602 0
DWIDTH 11 0
BBX 3 2 4 11
BITMAP
60
C0
ENDCHAR
STARTCHAR c6461
ENCODING -1
SWIDTH 602 0
DWIDTH 11 0
BBX 6 2 3 11
BITMAP
64
98
ENDCHAR
STARTCHAR c6468
ENCODING -1
SWIDTH 602 0
DWIDTH 11 0
BBX 3 2 3 11
BITMAP
C0
60
ENDCHAR
STARTCHAR c6470
ENCODING -1
SWIDTH 602 0
DWIDTH 11 0
BBX 5 2 3 11
BITMAP
70
D8
ENDCHAR
STARTCHAR c6472
ENCODING -1
SWIDTH 602 0
DWIDTH 11 0
BBX 5 2 3 11
BITMAP
D8
70
ENDCHAR
STARTCHAR c6477
ENCODING -1
SWIDTH 602 0
DWIDTH 11 0
BBX 10 3 0 5
BITMAP
01C0
3F00
E000
ENDCHAR
STARTCHAR c6478
ENCODING -1
SWIDTH 602 0
DWIDTH 11 0
BBX 6 7 2 6
BITMAP
18
28
68
C8
FC
08
08
ENDCHAR
STARTCHAR c6475
ENCODING -1
SWIDTH 602 0
DWIDTH 11 0
BBX 6 2 3 11
BITMAP
84
78
ENDCHAR
STARTCHAR c6476
ENCODING -1
SWIDTH 602 0
DWIDTH 11 0
BBX 2 2 5 11
BITMAP
C0
C0
ENDCHAR
ENDFONT
